<svg width="41" height="41" viewBox="0 0 41 41" fill="none" xmlns="http://www.w3.org/2000/svg">
<path d="M35.0187 4.64111H33.8199V34.0938C33.8199 36.0505 32.2272 37.6432 30.2706 37.6432H18.1238H8.46463V38.7349C8.46463 39.9852 9.47936 40.9999 10.7296 40.9999H22.872H35.0145C36.2647 40.9999 37.2794 39.9852 37.2794 38.7349V6.90605C37.2794 5.65584 36.269 4.64111 35.0187 4.64111Z" fill="#38C0FB"/>
<path d="M18.1238 36.3588H30.2662C31.5164 36.3588 32.5312 35.3441 32.5312 34.0939V4.64119V2.26493C32.5312 1.01472 31.5164 0 30.2662 0H18.1238H14.0863V0.749269C14.0948 0.826337 14.0991 0.907686 14.0991 0.989035V5.92565V7.19298C14.0991 8.95269 12.6691 10.3827 10.9094 10.3827H9.64204H4.70542C4.6412 10.3827 4.5727 10.3784 4.50847 10.3742H3.72067V34.0939C3.72067 35.3441 4.7354 36.3588 5.98561 36.3588H8.4689H18.1238ZM18.5819 28.6606H10.6653C10.0745 28.6606 9.59494 28.181 9.59494 27.5902C9.59494 26.9993 10.0745 26.5198 10.6653 26.5198H18.5862C19.177 26.5198 19.6566 26.9993 19.6566 27.5902C19.6566 28.181 19.1728 28.6606 18.5819 28.6606ZM26.5027 23.1974H10.6653C10.0745 23.1974 9.59494 22.7178 9.59494 22.127C9.59494 21.5361 10.0745 21.0566 10.6653 21.0566H26.5027C27.0936 21.0566 27.5731 21.5361 27.5731 22.127C27.5731 22.7178 27.0936 23.1974 26.5027 23.1974ZM10.6653 15.2551H26.5027C27.0936 15.2551 27.5731 15.7346 27.5731 16.3255C27.5731 16.9164 27.0936 17.3959 26.5027 17.3959H10.6653C10.0745 17.3959 9.59494 16.9164 9.59494 16.3255C9.59494 15.7346 10.0745 15.2551 10.6653 15.2551Z" fill="#550CB1"/>
<path d="M4.70474 9.09722H10.9087C10.913 9.09722 10.9215 9.09722 10.9258 9.09722C11.962 9.08865 12.8011 8.24947 12.8097 7.21334C12.8097 7.20906 12.8097 7.2005 12.8097 7.19622V0.987986C12.8097 0.41426 12.3387 0.0332031 11.8507 0.0332031C11.6152 0.0332031 11.3797 0.118834 11.1828 0.315785L4.02826 7.47023C3.42884 8.06965 3.85272 9.09722 4.70474 9.09722Z" fill="#38C0FB"/>
</svg>
