<svg width="205" height="63" viewBox="0 0 205 63" fill="none" xmlns="http://www.w3.org/2000/svg">
<path d="M41.886 7.644C43.4993 7.644 44.9147 7.95933 46.132 8.59C47.364 9.22067 48.31 10.1227 48.97 11.296C49.6447 12.4547 49.982 13.804 49.982 15.344C49.982 16.884 49.6447 18.2333 48.97 19.392C48.31 20.536 47.364 21.4233 46.132 22.054C44.9147 22.6847 43.4993 23 41.886 23H36.518V7.644H41.886ZM41.776 20.382C43.3893 20.382 44.636 19.942 45.516 19.062C46.396 18.182 46.836 16.9427 46.836 15.344C46.836 13.7453 46.396 12.4987 45.516 11.604C44.636 10.6947 43.3893 10.24 41.776 10.24H39.598V20.382H41.776ZM57.6995 23.198C56.5262 23.198 55.4702 22.9413 54.5315 22.428C53.5929 21.9 52.8522 21.1593 52.3095 20.206C51.7815 19.2527 51.5175 18.1527 51.5175 16.906C51.5175 15.6593 51.7889 14.5593 52.3315 13.606C52.8889 12.6527 53.6442 11.9193 54.5975 11.406C55.5509 10.878 56.6142 10.614 57.7875 10.614C58.9609 10.614 60.0242 10.878 60.9775 11.406C61.9309 11.9193 62.6789 12.6527 63.2215 13.606C63.7789 14.5593 64.0575 15.6593 64.0575 16.906C64.0575 18.1527 63.7715 19.2527 63.1995 20.206C62.6422 21.1593 61.8795 21.9 60.9115 22.428C59.9582 22.9413 58.8875 23.198 57.6995 23.198ZM57.6995 20.514C58.2569 20.514 58.7775 20.382 59.2615 20.118C59.7602 19.8393 60.1562 19.4287 60.4495 18.886C60.7429 18.3433 60.8895 17.6833 60.8895 16.906C60.8895 15.7473 60.5815 14.86 59.9655 14.244C59.3642 13.6133 58.6235 13.298 57.7435 13.298C56.8635 13.298 56.1229 13.6133 55.5215 14.244C54.9349 14.86 54.6415 15.7473 54.6415 16.906C54.6415 18.0647 54.9275 18.9593 55.4995 19.59C56.0862 20.206 56.8195 20.514 57.6995 20.514ZM65.5248 16.906C65.5248 15.6447 65.7815 14.5447 66.2948 13.606C66.8082 12.6527 67.5195 11.9193 68.4288 11.406C69.3382 10.878 70.3795 10.614 71.5528 10.614C73.0635 10.614 74.3102 10.9953 75.2928 11.758C76.2902 12.506 76.9575 13.562 77.2948 14.926H73.9728C73.7968 14.398 73.4962 13.9873 73.0708 13.694C72.6602 13.386 72.1468 13.232 71.5308 13.232C70.6508 13.232 69.9542 13.5547 69.4408 14.2C68.9275 14.8307 68.6708 15.7327 68.6708 16.906C68.6708 18.0647 68.9275 18.9667 69.4408 19.612C69.9542 20.2427 70.6508 20.558 71.5308 20.558C72.7775 20.558 73.5915 20.0007 73.9728 18.886H77.2948C76.9575 20.206 76.2902 21.2547 75.2928 22.032C74.2955 22.8093 73.0488 23.198 71.5528 23.198C70.3795 23.198 69.3382 22.9413 68.4288 22.428C67.5195 21.9 66.8082 21.1667 66.2948 20.228C65.7815 19.2747 65.5248 18.1673 65.5248 16.906ZM91.0572 10.812V23H87.9552V21.46C87.5592 21.988 87.0385 22.406 86.3932 22.714C85.7625 23.0073 85.0732 23.154 84.3252 23.154C83.3719 23.154 82.5285 22.956 81.7952 22.56C81.0619 22.1493 80.4825 21.5553 80.0572 20.778C79.6465 19.986 79.4412 19.0473 79.4412 17.962V10.812H82.5212V17.522C82.5212 18.49 82.7632 19.238 83.2472 19.766C83.7312 20.2793 84.3912 20.536 85.2272 20.536C86.0779 20.536 86.7452 20.2793 87.2292 19.766C87.7132 19.238 87.9552 18.49 87.9552 17.522V10.812H91.0572ZM109.232 10.636C110.728 10.636 111.931 11.098 112.84 12.022C113.764 12.9313 114.226 14.2073 114.226 15.85V23H111.146V16.268C111.146 15.3147 110.904 14.5887 110.42 14.09C109.936 13.5767 109.276 13.32 108.44 13.32C107.604 13.32 106.937 13.5767 106.438 14.09C105.954 14.5887 105.712 15.3147 105.712 16.268V23H102.632V16.268C102.632 15.3147 102.39 14.5887 101.906 14.09C101.422 13.5767 100.762 13.32 99.9261 13.32C99.0755 13.32 98.4008 13.5767 97.9021 14.09C97.4181 14.5887 97.1761 15.3147 97.1761 16.268V23H94.0961V10.812H97.1761V12.286C97.5721 11.7727 98.0781 11.3693 98.6941 11.076C99.3248 10.7827 100.014 10.636 100.762 10.636C101.715 10.636 102.566 10.8413 103.314 11.252C104.062 11.648 104.641 12.22 105.052 12.968C105.448 12.264 106.02 11.6993 106.768 11.274C107.531 10.8487 108.352 10.636 109.232 10.636ZM128.479 16.642C128.479 17.082 128.45 17.478 128.391 17.83H119.481C119.554 18.71 119.862 19.3993 120.405 19.898C120.948 20.3967 121.615 20.646 122.407 20.646C123.551 20.646 124.365 20.1547 124.849 19.172H128.171C127.819 20.3453 127.144 21.3133 126.147 22.076C125.15 22.824 123.925 23.198 122.473 23.198C121.3 23.198 120.244 22.9413 119.305 22.428C118.381 21.9 117.655 21.1593 117.127 20.206C116.614 19.2527 116.357 18.1527 116.357 16.906C116.357 15.6447 116.614 14.5373 117.127 13.584C117.64 12.6307 118.359 11.8973 119.283 11.384C120.207 10.8707 121.27 10.614 122.473 10.614C123.632 10.614 124.666 10.8633 125.575 11.362C126.499 11.8607 127.21 12.572 127.709 13.496C128.222 14.4053 128.479 15.454 128.479 16.642ZM125.289 15.762C125.274 14.97 124.988 14.3393 124.431 13.87C123.874 13.386 123.192 13.144 122.385 13.144C121.622 13.144 120.977 13.3787 120.449 13.848C119.936 14.3027 119.62 14.9407 119.503 15.762H125.289ZM137.481 10.636C138.933 10.636 140.106 11.098 141.001 12.022C141.896 12.9313 142.343 14.2073 142.343 15.85V23H139.263V16.268C139.263 15.3 139.021 14.5593 138.537 14.046C138.053 13.518 137.393 13.254 136.557 13.254C135.706 13.254 135.032 13.518 134.533 14.046C134.049 14.5593 133.807 15.3 133.807 16.268V23H130.727V10.812H133.807V12.33C134.218 11.802 134.738 11.3913 135.369 11.098C136.014 10.79 136.718 10.636 137.481 10.636ZM148.858 13.342V19.238C148.858 19.6487 148.953 19.9493 149.144 20.14C149.349 20.316 149.687 20.404 150.156 20.404H151.586V23H149.65C147.054 23 145.756 21.7387 145.756 19.216V13.342H144.304V10.812H145.756V7.798H148.858V10.812H151.586V13.342H148.858ZM158.691 14.772C158.691 12.2347 159.146 10.2473 160.055 8.81C160.979 7.37267 162.505 6.654 164.631 6.654C166.758 6.654 168.276 7.37267 169.185 8.81C170.109 10.2473 170.571 12.2347 170.571 14.772C170.571 17.324 170.109 19.326 169.185 20.778C168.276 22.23 166.758 22.956 164.631 22.956C162.505 22.956 160.979 22.23 160.055 20.778C159.146 19.326 158.691 17.324 158.691 14.772ZM167.535 14.772C167.535 13.6867 167.462 12.7773 167.315 12.044C167.183 11.296 166.905 10.6873 166.479 10.218C166.069 9.74867 165.453 9.514 164.631 9.514C163.81 9.514 163.187 9.74867 162.761 10.218C162.351 10.6873 162.072 11.296 161.925 12.044C161.793 12.7773 161.727 13.6867 161.727 14.772C161.727 15.8867 161.793 16.8253 161.925 17.588C162.057 18.336 162.336 18.9447 162.761 19.414C163.187 19.8687 163.81 20.096 164.631 20.096C165.453 20.096 166.076 19.8687 166.501 19.414C166.927 18.9447 167.205 18.336 167.337 17.588C167.469 16.8253 167.535 15.8867 167.535 14.772ZM173.882 19.524C175.29 18.3507 176.412 17.3753 177.248 16.598C178.084 15.806 178.781 14.9847 179.338 14.134C179.895 13.2833 180.174 12.4473 180.174 11.626C180.174 10.878 179.998 10.2913 179.646 9.866C179.294 9.44067 178.751 9.228 178.018 9.228C177.285 9.228 176.72 9.47733 176.324 9.976C175.928 10.46 175.723 11.1273 175.708 11.978H172.716C172.775 10.218 173.295 8.88333 174.278 7.974C175.275 7.06467 176.537 6.61 178.062 6.61C179.734 6.61 181.017 7.05733 181.912 7.952C182.807 8.832 183.254 9.998 183.254 11.45C183.254 12.594 182.946 13.6867 182.33 14.728C181.714 15.7693 181.01 16.6787 180.218 17.456C179.426 18.2187 178.392 19.1427 177.116 20.228H183.606V22.78H172.738V20.492L173.882 19.524Z" fill="white"/>
<path d="M46.25 50H44.612L38.024 40.01V50H36.386V37.436H38.024L44.612 47.408V37.436H46.25V50ZM48.4303 45.032C48.4303 44.024 48.6343 43.142 49.0423 42.386C49.4503 41.618 50.0083 41.024 50.7163 40.604C51.4363 40.184 52.2343 39.974 53.1103 39.974C53.9743 39.974 54.7243 40.16 55.3603 40.532C55.9963 40.904 56.4703 41.372 56.7823 41.936V40.136H58.4383V50H56.7823V48.164C56.4583 48.74 55.9723 49.22 55.3243 49.604C54.6883 49.976 53.9443 50.162 53.0923 50.162C52.2163 50.162 51.4243 49.946 50.7163 49.514C50.0083 49.082 49.4503 48.476 49.0423 47.696C48.6343 46.916 48.4303 46.028 48.4303 45.032ZM56.7823 45.05C56.7823 44.306 56.6323 43.658 56.3323 43.106C56.0323 42.554 55.6243 42.134 55.1083 41.846C54.6043 41.546 54.0463 41.396 53.4343 41.396C52.8223 41.396 52.2643 41.54 51.7603 41.828C51.2563 42.116 50.8543 42.536 50.5543 43.088C50.2543 43.64 50.1043 44.288 50.1043 45.032C50.1043 45.788 50.2543 46.448 50.5543 47.012C50.8543 47.564 51.2563 47.99 51.7603 48.29C52.2643 48.578 52.8223 48.722 53.4343 48.722C54.0463 48.722 54.6043 48.578 55.1083 48.29C55.6243 47.99 56.0323 47.564 56.3323 47.012C56.6323 46.448 56.7823 45.794 56.7823 45.05ZM73.0683 39.956C73.8363 39.956 74.5203 40.118 75.1203 40.442C75.7203 40.754 76.1943 41.228 76.5423 41.864C76.8903 42.5 77.0643 43.274 77.0643 44.186V50H75.4443V44.42C75.4443 43.436 75.1983 42.686 74.7063 42.17C74.2263 41.642 73.5723 41.378 72.7443 41.378C71.8923 41.378 71.2143 41.654 70.7103 42.206C70.2063 42.746 69.9543 43.532 69.9543 44.564V50H68.3343V44.42C68.3343 43.436 68.0883 42.686 67.5963 42.17C67.1163 41.642 66.4623 41.378 65.6343 41.378C64.7823 41.378 64.1043 41.654 63.6003 42.206C63.0963 42.746 62.8443 43.532 62.8443 44.564V50H61.2063V40.136H62.8443V41.558C63.1683 41.042 63.6003 40.646 64.1403 40.37C64.6923 40.094 65.2983 39.956 65.9583 39.956C66.7863 39.956 67.5183 40.142 68.1543 40.514C68.7903 40.886 69.2643 41.432 69.5763 42.152C69.8523 41.456 70.3083 40.916 70.9443 40.532C71.5803 40.148 72.2883 39.956 73.0683 39.956ZM88.2221 48.488L91.2821 40.136H93.0281L89.1581 50H87.2501L83.3801 40.136H85.1441L88.2221 48.488ZM103.64 44.69C103.64 45.002 103.622 45.332 103.586 45.68H95.7019C95.7619 46.652 96.0919 47.414 96.6919 47.966C97.3039 48.506 98.0419 48.776 98.9059 48.776C99.6139 48.776 100.202 48.614 100.67 48.29C101.15 47.954 101.486 47.51 101.678 46.958H103.442C103.178 47.906 102.65 48.68 101.858 49.28C101.066 49.868 100.082 50.162 98.9059 50.162C97.9699 50.162 97.1299 49.952 96.3859 49.532C95.6539 49.112 95.0779 48.518 94.6579 47.75C94.2379 46.97 94.0279 46.07 94.0279 45.05C94.0279 44.03 94.2319 43.136 94.6399 42.368C95.0479 41.6 95.6179 41.012 96.3499 40.604C97.0939 40.184 97.9459 39.974 98.9059 39.974C99.8419 39.974 100.67 40.178 101.39 40.586C102.11 40.994 102.662 41.558 103.046 42.278C103.442 42.986 103.64 43.79 103.64 44.69ZM101.948 44.348C101.948 43.724 101.81 43.19 101.534 42.746C101.258 42.29 100.88 41.948 100.4 41.72C99.9319 41.48 99.4099 41.36 98.8339 41.36C98.0059 41.36 97.2979 41.624 96.7099 42.152C96.1339 42.68 95.8039 43.412 95.7199 44.348H101.948ZM107.44 36.68V50H105.802V36.68H107.44ZM116.669 41.954C116.993 41.39 117.473 40.922 118.109 40.55C118.757 40.166 119.507 39.974 120.359 39.974C121.235 39.974 122.027 40.184 122.735 40.604C123.455 41.024 124.019 41.618 124.427 42.386C124.835 43.142 125.039 44.024 125.039 45.032C125.039 46.028 124.835 46.916 124.427 47.696C124.019 48.476 123.455 49.082 122.735 49.514C122.027 49.946 121.235 50.162 120.359 50.162C119.519 50.162 118.775 49.976 118.127 49.604C117.491 49.22 117.005 48.746 116.669 48.182V54.68H115.031V40.136H116.669V41.954ZM123.365 45.032C123.365 44.288 123.215 43.64 122.915 43.088C122.615 42.536 122.207 42.116 121.691 41.828C121.187 41.54 120.629 41.396 120.017 41.396C119.417 41.396 118.859 41.546 118.343 41.846C117.839 42.134 117.431 42.56 117.119 43.124C116.819 43.676 116.669 44.318 116.669 45.05C116.669 45.794 116.819 46.448 117.119 47.012C117.431 47.564 117.839 47.99 118.343 48.29C118.859 48.578 119.417 48.722 120.017 48.722C120.629 48.722 121.187 48.578 121.691 48.29C122.207 47.99 122.615 47.564 122.915 47.012C123.215 46.448 123.365 45.788 123.365 45.032ZM131.497 50.162C130.573 50.162 129.733 49.952 128.977 49.532C128.233 49.112 127.645 48.518 127.213 47.75C126.793 46.97 126.583 46.07 126.583 45.05C126.583 44.042 126.799 43.154 127.231 42.386C127.675 41.606 128.275 41.012 129.031 40.604C129.787 40.184 130.633 39.974 131.569 39.974C132.505 39.974 133.351 40.184 134.107 40.604C134.863 41.012 135.457 41.6 135.889 42.368C136.333 43.136 136.555 44.03 136.555 45.05C136.555 46.07 136.327 46.97 135.871 47.75C135.427 48.518 134.821 49.112 134.053 49.532C133.285 49.952 132.433 50.162 131.497 50.162ZM131.497 48.722C132.085 48.722 132.637 48.584 133.153 48.308C133.669 48.032 134.083 47.618 134.395 47.066C134.719 46.514 134.881 45.842 134.881 45.05C134.881 44.258 134.725 43.586 134.413 43.034C134.101 42.482 133.693 42.074 133.189 41.81C132.685 41.534 132.139 41.396 131.551 41.396C130.951 41.396 130.399 41.534 129.895 41.81C129.403 42.074 129.007 42.482 128.707 43.034C128.407 43.586 128.257 44.258 128.257 45.05C128.257 45.854 128.401 46.532 128.689 47.084C128.989 47.636 129.385 48.05 129.877 48.326C130.369 48.59 130.909 48.722 131.497 48.722ZM140.346 41.738C140.634 41.174 141.042 40.736 141.57 40.424C142.11 40.112 142.764 39.956 143.532 39.956V41.648H143.1C141.264 41.648 140.346 42.644 140.346 44.636V50H138.708V40.136H140.346V41.738ZM147.421 41.486V47.3C147.421 47.78 147.523 48.122 147.727 48.326C147.931 48.518 148.285 48.614 148.789 48.614H149.995V50H148.519C147.607 50 146.923 49.79 146.467 49.37C146.011 48.95 145.783 48.26 145.783 47.3V41.486H144.505V40.136H145.783V37.652H147.421V40.136H149.995V41.486H147.421ZM151.368 45.032C151.368 44.024 151.572 43.142 151.98 42.386C152.388 41.618 152.946 41.024 153.654 40.604C154.374 40.184 155.172 39.974 156.048 39.974C156.912 39.974 157.662 40.16 158.298 40.532C158.934 40.904 159.408 41.372 159.72 41.936V40.136H161.376V50H159.72V48.164C159.396 48.74 158.91 49.22 158.262 49.604C157.626 49.976 156.882 50.162 156.03 50.162C155.154 50.162 154.362 49.946 153.654 49.514C152.946 49.082 152.388 48.476 151.98 47.696C151.572 46.916 151.368 46.028 151.368 45.032ZM159.72 45.05C159.72 44.306 159.57 43.658 159.27 43.106C158.97 42.554 158.562 42.134 158.046 41.846C157.542 41.546 156.984 41.396 156.372 41.396C155.76 41.396 155.202 41.54 154.698 41.828C154.194 42.116 153.792 42.536 153.492 43.088C153.192 43.64 153.042 44.288 153.042 45.032C153.042 45.788 153.192 46.448 153.492 47.012C153.792 47.564 154.194 47.99 154.698 48.29C155.202 48.578 155.76 48.722 156.372 48.722C156.984 48.722 157.542 48.578 158.046 48.29C158.562 47.99 158.97 47.564 159.27 47.012C159.57 46.448 159.72 45.794 159.72 45.05ZM172.615 48.488L175.675 40.136H177.421L173.551 50H171.643L167.773 40.136H169.537L172.615 48.488ZM188.032 44.69C188.032 45.002 188.014 45.332 187.978 45.68H180.094C180.154 46.652 180.484 47.414 181.084 47.966C181.696 48.506 182.434 48.776 183.298 48.776C184.006 48.776 184.594 48.614 185.062 48.29C185.542 47.954 185.878 47.51 186.07 46.958H187.834C187.57 47.906 187.042 48.68 186.25 49.28C185.458 49.868 184.474 50.162 183.298 50.162C182.362 50.162 181.522 49.952 180.778 49.532C180.046 49.112 179.47 48.518 179.05 47.75C178.63 46.97 178.42 46.07 178.42 45.05C178.42 44.03 178.624 43.136 179.032 42.368C179.44 41.6 180.01 41.012 180.742 40.604C181.486 40.184 182.338 39.974 183.298 39.974C184.234 39.974 185.062 40.178 185.782 40.586C186.502 40.994 187.054 41.558 187.438 42.278C187.834 42.986 188.032 43.79 188.032 44.69ZM186.34 44.348C186.34 43.724 186.202 43.19 185.926 42.746C185.65 42.29 185.272 41.948 184.792 41.72C184.324 41.48 183.802 41.36 183.226 41.36C182.398 41.36 181.69 41.624 181.102 42.152C180.526 42.68 180.196 43.412 180.112 44.348H186.34ZM191.833 36.68V50H190.195V36.68H191.833ZM195.47 38.534C195.158 38.534 194.894 38.426 194.678 38.21C194.462 37.994 194.354 37.73 194.354 37.418C194.354 37.106 194.462 36.842 194.678 36.626C194.894 36.41 195.158 36.302 195.47 36.302C195.77 36.302 196.022 36.41 196.226 36.626C196.442 36.842 196.55 37.106 196.55 37.418C196.55 37.73 196.442 37.994 196.226 38.21C196.022 38.426 195.77 38.534 195.47 38.534ZM196.262 40.136V50H194.624V40.136H196.262ZM201.052 41.486V47.3C201.052 47.78 201.154 48.122 201.358 48.326C201.562 48.518 201.916 48.614 202.42 48.614H203.626V50H202.15C201.238 50 200.554 49.79 200.098 49.37C199.642 48.95 199.414 48.26 199.414 47.3V41.486H198.136V40.136H199.414V37.652H201.052V40.136H203.626V41.486H201.052Z" fill="#4951B8"/>
<path d="M14.52 10.9243H14.0229V23.1364C14.0229 23.9477 13.3625 24.6081 12.5512 24.6081H7.51475H3.50974V25.0608C3.50974 25.5792 3.93047 25.9999 4.44885 25.9999H9.48353H14.5182C15.0366 25.9999 15.4573 25.5792 15.4573 25.0608V11.8634C15.4573 11.3451 15.0384 10.9243 14.52 10.9243Z" fill="#38C0FB"/>
<path d="M7.51474 24.0756H12.5494C13.0678 24.0756 13.4885 23.6549 13.4885 23.1365V10.9244V9.93912C13.4885 9.42074 13.0678 9 12.5494 9H7.51474H5.84066V9.31067C5.84419 9.34263 5.84599 9.37636 5.84599 9.41009V11.457V11.9825C5.84599 12.7121 5.25304 13.305 4.52341 13.305H3.99793H1.95104C1.92441 13.305 1.896 13.3033 1.86937 13.3015H1.54272V23.1365C1.54272 23.6549 1.96346 24.0756 2.48184 24.0756H3.5115H7.51474ZM7.7047 20.8837H4.42222C4.17723 20.8837 3.9784 20.6848 3.9784 20.4398C3.9784 20.1948 4.17723 19.996 4.42222 19.996H7.70647C7.95146 19.996 8.15029 20.1948 8.15029 20.4398C8.15029 20.6848 7.94968 20.8837 7.7047 20.8837ZM10.989 18.6184H4.42222C4.17723 18.6184 3.9784 18.4196 3.9784 18.1746C3.9784 17.9296 4.17723 17.7308 4.42222 17.7308H10.989C11.2339 17.7308 11.4328 17.9296 11.4328 18.1746C11.4328 18.4196 11.2339 18.6184 10.989 18.6184ZM4.42222 15.3253H10.989C11.2339 15.3253 11.4328 15.5241 11.4328 15.7691C11.4328 16.0141 11.2339 16.2129 10.989 16.2129H4.42222C4.17723 16.2129 3.9784 16.0141 3.9784 15.7691C3.9784 15.5241 4.17723 15.3253 4.42222 15.3253Z" fill="#A070DC"/>
<path d="M1.95077 12.7719H4.52314C4.52492 12.7719 4.52847 12.7719 4.53024 12.7719C4.95986 12.7684 5.30781 12.4204 5.31136 11.9908C5.31136 11.989 5.31136 11.9855 5.31136 11.9837V9.40956C5.31136 9.17167 5.11608 9.01367 4.91372 9.01367C4.81608 9.01367 4.71844 9.04918 4.63678 9.13084L1.67028 12.0973C1.42174 12.3459 1.59749 12.7719 1.95077 12.7719Z" fill="#38C0FB"/>
</svg>
